<?xml version="1.0" encoding="UTF-8"?>
<!DOCTYPE svg PUBLIC "-//W3C//DTD SVG 1.1//EN" "http://www.w3.org/Graphics/SVG/1.1/DTD/svg11.dtd">
<!-- Creator: CorelDRAW X7 -->
<svg xmlns="http://www.w3.org/2000/svg" xml:space="preserve" width="73mm" height="33mm" version="1.1" style="shape-rendering:geometricPrecision; text-rendering:geometricPrecision; image-rendering:optimizeQuality; fill-rule:evenodd; clip-rule:evenodd"
viewBox="0 0 7300 3300"
 xmlns:xlink="http://www.w3.org/1999/xlink">
 <defs>
  <style type="text/css">
   <![CDATA[
    .fil2 {fill:#FEFEFE}
    .fil0 {fill:#D2D3D5;fill-rule:nonzero}
    .fil1 {fill:#FFC739;fill-rule:nonzero}
   ]]>
  </style>
 </defs>
 <g id="Camada_x0020_1">
  <metadata id="CorelCorpID_0Corel-Layer"/>
  <polygon class="fil0" points="7265,13 7265,3287 1161,3287 35,1650 1161,13 "/>
  <g id="_2037035371024">
   <path class="fil1" d="M2577 1650c0,702 -569,1271 -1271,1271 -702,0 -1271,-569 -1271,-1271 0,-702 569,-1271 1271,-1271 702,0 1271,569 1271,1271z"/>
   <g>
    <g>
     <g>
      <path class="fil2" d="M1746 1360c0,-155 -126,-281 -281,-281 -155,0 -280,126 -280,281 0,155 125,281 280,281 155,0 281,-126 281,-281zm-296 192c-8,0 -12,-5 -12,-12 0,-7 0,-12 0,-19 0,-13 0,-14 -13,-16 -17,-2 -33,-6 -48,-13 -12,-6 -13,-9 -10,-21 3,-10 5,-19 8,-28 3,-11 6,-12 16,-7 16,9 34,14 53,16 12,2 23,1 34,-4 21,-9 24,-33 7,-47 -6,-5 -13,-9 -20,-12 -18,-8 -37,-14 -54,-24 -28,-17 -46,-40 -44,-73 3,-38 24,-62 59,-75 15,-5 15,-5 15,-20 0,-6 0,-10 0,-16 0,-11 2,-13 13,-13 4,0 7,0 11,0 24,0 24,0 24,24 0,17 0,17 17,20 13,2 25,5 38,11 6,3 9,8 7,14 -3,11 -6,21 -9,32 -4,9 -7,11 -16,6 -19,-9 -38,-13 -59,-11 -6,0 -11,1 -16,3 -18,8 -21,28 -6,40 8,7 16,11 26,15 16,7 31,13 46,21 49,27 62,87 28,129 -13,15 -29,25 -47,29 -9,3 -12,7 -12,15 1,9 0,17 0,25 0,7 -4,12 -11,12 -7,-1 -16,-1 -25,-1z"/>
     </g>
    </g>
    <g>
     <circle class="fil2" cx="1057" cy="1374" r="78"/>
    </g>
    <g>
     <circle class="fil2" cx="1874" cy="1374" r="78"/>
    </g>
    <g>
     <path class="fil2" d="M2085 902l-1222 0c-71,0 -128,58 -128,128l0 427c19,-1 38,-1 57,-1 18,0 35,0 53,1l0 -288c10,2 20,4 32,4 71,0 129,-58 129,-130 0,-11 -1,-22 -3,-32l952 0c-2,7 -3,16 -3,23 0,72 58,130 130,130 8,0 16,-1 23,-2l0 394c-7,-1 -15,-2 -23,-2 -71,0 -130,58 -130,130 0,8 1,16 3,24l-683 0c0,3 0,6 0,8 0,2 0,3 0,4l0 97 813 0c71,0 128,-57 128,-128l0 -659c0,-70 -57,-128 -128,-128z"/>
    </g>
    <g>
     <g>
      <path class="fil2" d="M1054 1584c-71,-26 -164,-41 -262,-41 -99,0 -192,15 -263,41 -107,40 -130,94 -130,133l0 167c0,1 0,1 0,2l0 0 0 167c0,1 0,2 0,2l0 0 0 2 0 165 0 2c0,38 23,92 130,133 71,26 164,41 263,41 98,0 191,-15 262,-41 107,-40 130,-94 130,-133l0 -2 0 0 0 -164c0,-1 0,-2 0,-3l0 0c0,0 0,-1 0,-2l0 -164c0,-1 0,-2 0,-3l0 0c0,-1 0,-1 0,-2l0 -164c0,-1 0,-2 0,-3 1,-38 -22,-92 -130,-133zm-494 82c61,-23 144,-36 232,-36 88,0 170,13 231,36 59,21 74,43 74,50l0 2c-1,7 -15,29 -74,51 -61,22 -144,35 -231,35 -89,0 -171,-13 -232,-35 -61,-23 -75,-46 -75,-52 0,-5 14,-29 75,-51zm464 608c-62,23 -144,36 -232,36 -88,0 -171,-13 -232,-36 -60,-22 -74,-45 -74,-51l0 -54c12,7 27,13 44,19 70,27 163,41 262,41 99,0 192,-14 262,-41 17,-6 31,-12 44,-19l0 54c0,6 -14,29 -74,51zm74 -220l0 0 0 0c-1,7 -16,29 -74,51 -62,22 -144,35 -232,35 -88,0 -171,-13 -232,-35 -60,-23 -74,-46 -74,-51l0 -55c12,7 27,13 44,20 70,26 163,41 262,41 99,0 192,-15 262,-41 17,-7 31,-13 44,-20l0 55 0 0zm0 -170l0 0 0 1c-1,7 -16,28 -74,50 -62,23 -144,35 -232,35 -88,0 -171,-12 -232,-35 -60,-22 -74,-45 -74,-51l0 -54c12,7 27,13 44,19 70,27 163,41 262,41 99,0 192,-14 262,-41 17,-6 31,-12 44,-19l0 54 0 0z"/>
     </g>
    </g>
   </g>
  </g>
 </g>
</svg>
