<?xml version="1.0" encoding="iso-8859-1"?>
<!-- Generator: Adobe Illustrator 16.0.0, SVG Export Plug-In . SVG Version: 6.00 Build 0)  -->
<!DOCTYPE svg PUBLIC "-//W3C//DTD SVG 1.1//EN" "http://www.w3.org/Graphics/SVG/1.1/DTD/svg11.dtd">
<svg version="1.1" id="Capa_1" xmlns="http://www.w3.org/2000/svg" xmlns:xlink="http://www.w3.org/1999/xlink" x="0px" y="0px"
	 width="42.574px" height="42.574px" viewBox="0 0 42.574 42.574" style="enable-background:new 0 0 42.574 42.574;"
	 xml:space="preserve">
<g>
	<path d="M42.449,35.771c0,2.209-1.791,4-4,4H19.158c-2.209,0-4-1.791-4-4s1.791-4,4-4h19.291
		C40.658,31.771,42.449,33.562,42.449,35.771z M9.481,28.969H4.375c-2.347,0-4.25,1.901-4.25,4.25v5.105
		c0,2.348,1.903,4.25,4.25,4.25h5.106c2.347,0,4.25-1.902,4.25-4.25v-5.105C13.731,30.87,11.829,28.969,9.481,28.969z
		 M38.449,17.287H19.158c-2.209,0-4,1.791-4,4s1.791,4,4,4h19.291c2.209,0,4-1.791,4-4S40.658,17.287,38.449,17.287z M13.731,18.734
		v5.104c0,2.35-1.903,4.25-4.25,4.25H4.375c-2.347,0-4.25-1.9-4.25-4.25v-5.104c0-2.348,1.903-4.25,4.25-4.25h5.106
		C11.829,14.484,13.731,16.387,13.731,18.734z M11.729,18.404c-0.586-0.586-1.536-0.586-2.121,0l-0.33,0.33l-3.253,3.254l-1.65-1.65
		l-0.127-0.127c-0.586-0.586-1.535-0.586-2.121,0s-0.586,1.535,0,2.121l2.838,2.838c0.281,0.281,0.663,0.439,1.061,0.439
		c0.398,0,0.779-0.158,1.061-0.439l1.33-1.33l1.066-1.066l2.248-2.246C12.315,19.939,12.315,18.99,11.729,18.404z M19.158,10.803
		h19.291c2.209,0,4-1.791,4-4s-1.791-4-4-4H19.158c-2.209,0-4,1.791-4,4S16.949,10.803,19.158,10.803z M9.481,0H4.375
		c-2.347,0-4.25,1.902-4.25,4.25v5.105c0,2.349,1.903,4.25,4.25,4.25h5.106c2.347,0,4.25-1.901,4.25-4.25V4.25
		C13.731,1.902,11.829,0,9.481,0z"/>
</g>
<g>
</g>
<g>
</g>
<g>
</g>
<g>
</g>
<g>
</g>
<g>
</g>
<g>
</g>
<g>
</g>
<g>
</g>
<g>
</g>
<g>
</g>
<g>
</g>
<g>
</g>
<g>
</g>
<g>
</g>
</svg>
